<svg xmlns="http://www.w3.org/2000/svg" viewBox="0 0 199.26 199.27"><g id="Layer_2" data-name="Layer 2"><g id="Layer_1-2" data-name="Layer 1"><path d="M133.72,111l60.83,60.83a16.08,16.08,0,0,1,0,22.73h0a16.08,16.08,0,0,1-22.73,0L111,133.73a16.07,16.07,0,0,0-22.73,0L27.44,194.56a16.08,16.08,0,0,1-22.73,0h0a16.07,16.07,0,0,1,0-22.73L65.54,111a16.08,16.08,0,0,0,0-22.73L4.71,27.44a16.07,16.07,0,0,1,0-22.73h0a16.07,16.07,0,0,1,22.73,0L88.27,65.54a16.08,16.08,0,0,0,22.73,0L171.82,4.71a16.07,16.07,0,0,1,22.73,0h0a16.08,16.08,0,0,1,0,22.73L133.72,88.27A16.07,16.07,0,0,0,133.72,111Z"/></g></g></svg>