<svg xmlns="http://www.w3.org/2000/svg" viewBox="0 0 189.86 208.04"><defs><style>.cls-1{fill:#f93;}</style></defs><g id="Layer_2" data-name="Layer 2"><g id="Layer_1-2" data-name="Layer 1"><path class="cls-1" d="M189.86,104.38A104,104,0,0,1,85.84,208c-57.45,0-105-62-78.16-112.82C18.6,74.52,29.05,70.28,43.21,52.31a5.5,5.5,0,0,1,9.8,3.6C51.9,87.45,36.35,102,50.92,109.14,76.09,121.46,89.4,81.92,88.81,58.87c-.73-28.35-8.36-41.27-18.09-48.7A5.29,5.29,0,0,1,73.37.74C76.54.36,79.76.12,83,0,141.39-1.52,190.05,46,189.86,104.38Z"/></g></g></svg>