<svg xmlns="http://www.w3.org/2000/svg" viewBox="0 0 211.91 211.91"><g id="Layer_2" data-name="Layer 2"><g id="Layer_1-2" data-name="Layer 1"><path d="M211.91,13.55V77.62a13.56,13.56,0,0,1-13.55,13.56H89.67A13.56,13.56,0,0,1,76.11,77.62V13.55A13.56,13.56,0,0,1,89.67,0H198.36A13.55,13.55,0,0,1,211.91,13.55Z"/><path d="M211.91,130.1v68.25a13.56,13.56,0,0,1-13.55,13.56H89.67a13.56,13.56,0,0,1-13.56-13.56V130.1a13.56,13.56,0,0,1,13.56-13.55H198.36A13.55,13.55,0,0,1,211.91,130.1Z"/><path d="M50.74,13.55v184.8a13.56,13.56,0,0,1-13.55,13.56H13.56A13.56,13.56,0,0,1,0,198.35V13.55A13.56,13.56,0,0,1,13.56,0H37.19A13.55,13.55,0,0,1,50.74,13.55Z"/></g></g></svg>