<svg xmlns="http://www.w3.org/2000/svg" viewBox="0 0 211.91 211.9"><g id="Layer_2" data-name="Layer 2"><g id="Layer_1-2" data-name="Layer 1"><path d="M175.91,146.8h0a7,7,0,0,1-6.95-7v-8.49a7,7,0,0,0-7-7H73.61a7,7,0,0,1-7-7v-23a7,7,0,0,1,7-7H162a7,7,0,0,0,7-6.95V72.05a7,7,0,0,1,6.95-6.94h0a6.93,6.93,0,0,1,5.27,2.42l29.06,33.9a6.94,6.94,0,0,1,0,9l-29.06,33.9A6.94,6.94,0,0,1,175.91,146.8Z"/><path d="M140.32,47.91v-5.1a17.44,17.44,0,0,0-17.44-17.44H42.81A17.44,17.44,0,0,0,25.37,42.81V169.1a17.44,17.44,0,0,0,17.44,17.44h80.07a17.44,17.44,0,0,0,17.44-17.44V164a8.47,8.47,0,0,1,8.48-8.48h8.4a8.48,8.48,0,0,1,8.48,8.48v13.42A34.48,34.48,0,0,1,131.2,211.9H34.48A34.48,34.48,0,0,1,0,177.42V34.48A34.48,34.48,0,0,1,34.48,0H131.2a34.48,34.48,0,0,1,34.48,34.48V47.91a8.48,8.48,0,0,1-8.48,8.48h-8.4A8.48,8.48,0,0,1,140.32,47.91Z"/></g></g></svg>