<svg xmlns="http://www.w3.org/2000/svg" viewBox="0 0 187.25 164.44"><g id="Layer_2" data-name="Layer 2"><g id="Layer_1-2" data-name="Layer 1"><path d="M98.55,25.64l32.79-24a8.34,8.34,0,0,1,13.22,7.63l-4.39,40.4a8.31,8.31,0,0,0,4.92,8.53l37.19,16.4a8.34,8.34,0,0,1,0,15.26l-37.19,16.4a8.31,8.31,0,0,0-4.92,8.53l4.39,40.4a8.34,8.34,0,0,1-13.22,7.63l-32.79-24a8.36,8.36,0,0,0-9.85,0l-32.79,24a8.34,8.34,0,0,1-13.22-7.63l4.4-40.4a8.33,8.33,0,0,0-4.93-8.53L5,89.85A8.34,8.34,0,0,1,5,74.59l37.19-16.4a8.33,8.33,0,0,0,4.93-8.53l-4.4-40.4A8.34,8.34,0,0,1,55.91,1.63l32.79,24A8.36,8.36,0,0,0,98.55,25.64Z"/></g></g></svg>