<svg xmlns="http://www.w3.org/2000/svg" viewBox="0 0 211.91 211.91"><g id="Layer_2" data-name="Layer 2"><g id="Layer_1-2" data-name="Layer 1"><path d="M45.56,10.16V178.57a8,8,0,0,1-8,8h0a8,8,0,0,1-8-8V10.16A10.16,10.16,0,0,0,19.44,0H10.16A10.16,10.16,0,0,0,0,10.16V178a33.89,33.89,0,0,0,33.89,33.89h166a12.06,12.06,0,0,0,12.06-12.06V12.06A12.06,12.06,0,0,0,199.85,0H55.72A10.16,10.16,0,0,0,45.56,10.16ZM178.7,186.55H78.76a7.84,7.84,0,0,1-7.84-7.84V169a7.84,7.84,0,0,1,7.84-7.84H178.7a7.84,7.84,0,0,1,7.84,7.84v9.69A7.84,7.84,0,0,1,178.7,186.55Zm0-50.19H78.76a7.84,7.84,0,0,1-7.84-7.84v-9.68A7.84,7.84,0,0,1,78.76,111H178.7a7.84,7.84,0,0,1,7.84,7.84v9.68A7.84,7.84,0,0,1,178.7,136.36Zm.07-50.72H78.69a7.77,7.77,0,0,1-7.77-7.77V33.13a7.77,7.77,0,0,1,7.77-7.77H178.77a7.77,7.77,0,0,1,7.77,7.77V77.87A7.77,7.77,0,0,1,178.77,85.64Z"/></g></g></svg>