<svg xmlns="http://www.w3.org/2000/svg" viewBox="0 0 195.06 127.99"><g id="Layer_2" data-name="Layer 2"><g id="Layer_1-2" data-name="Layer 1"><path d="M191.53,58.87l-59.84,43.38a8.54,8.54,0,0,1-13.56-6.92V91a8.43,8.43,0,0,0-7.57-8.38h-.22l-5.29-.2-2.71-.1a24.56,24.56,0,0,0-2.71,0l-5.39.17-2.59.08h-.24l-2.55.26-5.37.54c-.91.06-1.77.28-2.66.41l-2.65.47a107.5,107.5,0,0,0-10.57,2.39c-.9.19-1.73.53-2.6.8l-2.59.87-2.61.87c-.86.32-1.69.7-2.54,1-1.68.74-3.43,1.39-5.1,2.2l-5,2.56a102.43,102.43,0,0,0-19,13.55,109.76,109.76,0,0,0-14.51,16l0,0A7.35,7.35,0,0,1,.56,117.83s0,0,0-.06A6.59,6.59,0,0,1,1,117l-.07,0a156.42,156.42,0,0,1,13.3-26.43,151.72,151.72,0,0,1,18.67-23.9l5.31-5.23c1.8-1.7,3.67-3.23,5.53-4.86.93-.79,1.86-1.63,2.81-2.39L49.4,52l2.91-2.19c1-.71,1.94-1.5,2.94-2.12,4-2.58,8-5.35,12.15-7.52l3.1-1.72c1-.56,2.07-1.2,3.12-1.67l6.32-3L83,32.33l.18-.07L86.33,31l6.45-2.53c1.08-.44,2.16-.8,3.24-1.14l3.25-1,6.44-2,.18-.05c1.92-.5,3.85-1,5.78-1.48a8.55,8.55,0,0,0,6.46-8.29V8.56a8.55,8.55,0,0,1,13.56-6.92L191.53,45A8.55,8.55,0,0,1,191.53,58.87Z"/></g></g></svg>