<svg xmlns="http://www.w3.org/2000/svg" viewBox="0 0 164.27 190.25"><g id="Layer_2" data-name="Layer 2"><g id="Layer_1-2" data-name="Layer 1"><path d="M151.67,96.15l-4.43-2.22a8.71,8.71,0,0,0-11.68,3.89l-14,28a15.2,15.2,0,0,1-13.85,8.4l-25.49-.42a15.23,15.23,0,0,0-13.85,8.41l-19.8,39.61a15.22,15.22,0,0,1-20.41,6.8L8.41,178.76a15.2,15.2,0,0,1-6.8-20.4L36.19,89.2A15.2,15.2,0,0,1,50,80.8l27.22.44a12.49,12.49,0,0,0,11.35-6.89h0a8.71,8.71,0,0,0-3.89-11.68l-4.43-2.21a8.71,8.71,0,0,1-.9-15.06L146,1.45a8.7,8.7,0,0,1,13.48,6.74l4.79,79.65A8.71,8.71,0,0,1,151.67,96.15Z"/></g></g></svg>