<svg xmlns="http://www.w3.org/2000/svg" viewBox="0 0 513.32 132.14"><defs><style>.cls-1{fill:#fff;}.cls-2{fill:#f93;}</style></defs><g id="Layer_2" data-name="Layer 2"><g id="Layer_1-2" data-name="Layer 1"><path class="cls-1" d="M11.8,130.38V67H0V45.46H11.8V37.88a46.13,46.13,0,0,1,4.06-20A31.17,31.17,0,0,1,27.13,4.67,30.81,30.81,0,0,1,44.22,0,55.19,55.19,0,0,1,55.94,1.32a66.78,66.78,0,0,1,12.24,4L63.25,26.6a58.09,58.09,0,0,0-6.34-1.93,27,27,0,0,0-6.52-.89q-5.12,0-7.75,3.35T40,36.82v8.64h21.5V67H40v63.43Z"/><path class="cls-1" d="M113.29,132.14a55,55,0,0,1-21-3.75A46.5,46.5,0,0,1,76.73,118.2,43.51,43.51,0,0,1,67,103.31,47.66,47.66,0,0,1,63.6,85.62a49.43,49.43,0,0,1,5.91-24,45,45,0,0,1,17-17.45q11.1-6.6,26.78-6.6t26.78,6.52a43.49,43.49,0,0,1,16.82,17.31,48.6,48.6,0,0,1,5.73,23.14,44.23,44.23,0,0,1-.26,4.79c-.18,1.57-.33,2.93-.44,4.09H93.56a18.21,18.21,0,0,0,10.92,16.27,23,23,0,0,0,9.51,2,25.08,25.08,0,0,0,12.07-3,15.5,15.5,0,0,0,7.49-7.93l24,6.87a38.56,38.56,0,0,1-9.87,12.6,50.2,50.2,0,0,1-15.06,8.63A54.76,54.76,0,0,1,113.29,132.14ZM93,76.11h40a20.45,20.45,0,0,0-3.35-9.75,19.72,19.72,0,0,0-7-6.45,21.56,21.56,0,0,0-19.38,0,18.26,18.26,0,0,0-7,6.36A21.37,21.37,0,0,0,93,76.11Z"/><path class="cls-1" d="M335,103.06a25.78,25.78,0,0,1,5.1-15.76,34.19,34.19,0,0,1,14.1-10.8,51.33,51.33,0,0,1,20.61-3.91,63,63,0,0,1,11.1,1,42.17,42.17,0,0,1,9.52,2.73v-4q0-7.5-4.58-11.33T376.9,57.08a39.74,39.74,0,0,0-14.45,2.65A78,78,0,0,0,348,67.3l-8.45-18a71.38,71.38,0,0,1,19.11-8.9,75.09,75.09,0,0,1,21.06-2.9q20.77,0,32.33,9.69t11.54,28.39V99.15q0,4.16,1.32,5.89c.88,1.15,2.38,1.79,4.49,1.9v23.44a43.72,43.72,0,0,1-6.52,1.14q-3,.27-5.28.27-7.94,0-12-3.18a14.61,14.61,0,0,1-5.29-8.63l-.7-4A39.91,39.91,0,0,1,385.09,128a40.54,40.54,0,0,1-17.88,4.14,35.61,35.61,0,0,1-16.48-3.75A29.15,29.15,0,0,1,339.19,118,27.24,27.24,0,0,1,335,103.06Zm56,3.34a14,14,0,0,0,3.17-3.51,6.81,6.81,0,0,0,1.24-3.5v-8a42.64,42.64,0,0,0-7.93-2.14,47.73,47.73,0,0,0-8.11-.77,22.28,22.28,0,0,0-12.68,3.43q-5.12,3.42-5.11,8.71a9.91,9.91,0,0,0,1.76,5.56,11.58,11.58,0,0,0,4.85,4.11,17,17,0,0,0,7.31,1.45,25.76,25.76,0,0,0,8.45-1.45A21.57,21.57,0,0,0,391,106.4Z"/><path class="cls-1" d="M475.44,132.14a68.23,68.23,0,0,1-23-4,52.52,52.52,0,0,1-19.11-11.54L443.19,99a68.87,68.87,0,0,0,16.3,9.24,42,42,0,0,0,15.07,3.09,18.52,18.52,0,0,0,8.36-1.58,5.3,5.3,0,0,0,3.09-5.06,4.68,4.68,0,0,0-1.85-4,21.69,21.69,0,0,0-5.38-2.7q-3.52-1.29-8.8-2.69-10.58-3.63-17.62-6.85t-10.57-8q-3.54-4.77-3.53-12.41A27.51,27.51,0,0,1,443,52a31.17,31.17,0,0,1,13.3-10.67q8.55-3.83,20.53-3.82a59.92,59.92,0,0,1,18.67,3,47.08,47.08,0,0,1,17.09,10.22l-11.1,17.44a69.66,69.66,0,0,0-14-7.93,33,33,0,0,0-12.07-2.46,20.19,20.19,0,0,0-5.46.69,8.55,8.55,0,0,0-4,2.25,6,6,0,0,0-1.5,4.32,5.79,5.79,0,0,0,1.5,4.06,11.31,11.31,0,0,0,4.76,2.77q3.25,1.13,8,2.51a179.53,179.53,0,0,1,19.3,6.74q7.67,3.28,11.45,8.3t3.79,13.14q0,13.83-10.22,21.7T475.44,132.14Z"/><path class="cls-2" d="M180.56,130l23.79-39.44-4.07.34c-.76.07-1.42.12-2.12.12C180.44,91,164.9,75,164.9,56.63c0-21.44,17.94-38.24,40.84-38.24s40.77,17,40.77,38.59c0,12-2.45,16.12-32.57,67L210.36,130Zm25.11-88.07c-8.43,0-14.78,6.54-14.78,15.2a14.79,14.79,0,1,0,14.78-15.2Z"/><path class="cls-2" d="M268,130l23.79-39.44-4.07.34c-.76.07-1.42.12-2.12.12C267.88,91,252.34,75,252.34,56.63c0-21.44,17.94-38.24,40.85-38.24S334,35.34,334,57c0,12-2.46,16.12-32.57,67L297.81,130Zm25.12-88.07c-8.43,0-14.79,6.54-14.79,15.2a14.79,14.79,0,1,0,14.79-15.2Z"/></g></g></svg>